# xmcd
#
# Track frame offsets:
#	150
#	18781
#	36562
#	52757
#	74512
#	97580
#	115934
#	133503
#	148769
#	160885
#	176992
#	193607
#	205225
#	220213
#	240678
#	256359
#	279827
#	296861
#	309591
#	326595
#
# Disc length: 4518 seconds
#
# Revision: 1
# Processed by: cddbd v1.5.2PL0 Copyright (c) Steve Scherf et al.
# Submitted via: audiograbber 1.83.01
#
DISCID=2d11a414
DTITLE=Grupo Digital - Volume 2
DYEAR=2010
DGENRE=Brega
TTITLE0=Se Não For Por Amor
TTITLE1=Pena de Morte
TTITLE2=Quem Espera Sempre Alcança
TTITLE3=Fim de Noite
TTITLE4=Dizer Que Sou Eu
TTITLE5=Custe o Que Custar
TTITLE6=Frio da Solidão
TTITLE7=Por Eu Ter Me Machucado
TTITLE8=Folhetim
TTITLE9=Ausência
TTITLE10=Voce e Eu
TTITLE11=Apenas Um Sorriso
TTITLE12=A Única
TTITLE13=Vou Gritar Que Te Amo
TTITLE14=Verdes Campos
TTITLE15=Desespero de Uma Noite
TTITLE16=Em Nome do Amor
TTITLE17=Cachorro de Madame
TTITLE18=Manhã de Setembro
TTITLE19=Casa do Sol Nascente
EXTD=
EXTT0=
EXTT1=
EXTT2=
EXTT3=
EXTT4=
EXTT5=
EXTT6=
EXTT7=
EXTT8=
EXTT9=
EXTT10=
EXTT11=
EXTT12=
EXTT13=
EXTT14=
EXTT15=
EXTT16=
EXTT17=
EXTT18=
EXTT19=
PLAYORDER=
